<mxfile host="app.diagrams.net" agent="Mozilla/5.0 (Windows NT 10.0; Win64; x64) AppleWebKit/537.36 (KHTML, like Gecko) Chrome/131.0.0.0 Safari/537.36 Edg/131.0.0.0" version="26.0.6">
  <diagram name="ページ1" id="gGGXlaLIhtGP3dZ9yeaz">
    <mxGraphModel dx="2271" dy="916" grid="1" gridSize="10" guides="1" tooltips="1" connect="1" arrows="1" fold="1" page="1" pageScale="1" pageWidth="827" pageHeight="1169" math="0" shadow="0">
      <root>
        <mxCell id="0" />
        <mxCell id="1" parent="0" />
        <mxCell id="P2IJpVgM9Y5ErY8ZvdBc-50" value="" style="rounded=0;whiteSpace=wrap;html=1;fillColor=#b1ddf0;strokeColor=#10739e;" vertex="1" parent="1">
          <mxGeometry x="-230" y="190" width="960" height="870" as="geometry" />
        </mxCell>
        <mxCell id="P2IJpVgM9Y5ErY8ZvdBc-49" value="" style="rounded=0;whiteSpace=wrap;html=1;fillColor=#fff2cc;strokeColor=#d6b656;gradientColor=#ffd966;" vertex="1" parent="1">
          <mxGeometry x="-230" y="1080" width="960" height="290" as="geometry" />
        </mxCell>
        <mxCell id="P2IJpVgM9Y5ErY8ZvdBc-15" value="" style="rounded=0;whiteSpace=wrap;html=1;" vertex="1" parent="1">
          <mxGeometry x="21.17" y="750" width="315" height="280" as="geometry" />
        </mxCell>
        <mxCell id="P2IJpVgM9Y5ErY8ZvdBc-11" value="" style="rounded=0;whiteSpace=wrap;html=1;" vertex="1" parent="1">
          <mxGeometry x="30" y="390" width="310" height="160" as="geometry" />
        </mxCell>
        <mxCell id="P2IJpVgM9Y5ErY8ZvdBc-1" value="" style="rounded=1;whiteSpace=wrap;html=1;" vertex="1" parent="1">
          <mxGeometry x="120" y="240" width="120" height="60" as="geometry" />
        </mxCell>
        <mxCell id="P2IJpVgM9Y5ErY8ZvdBc-2" value="Microsoft forms" style="text;html=1;align=center;verticalAlign=middle;resizable=0;points=[];autosize=1;strokeColor=none;fillColor=none;" vertex="1" parent="1">
          <mxGeometry x="120" y="210" width="110" height="30" as="geometry" />
        </mxCell>
        <mxCell id="P2IJpVgM9Y5ErY8ZvdBc-3" value="" style="endArrow=classic;html=1;rounded=0;" edge="1" parent="1">
          <mxGeometry width="50" height="50" relative="1" as="geometry">
            <mxPoint x="179.29" y="300" as="sourcePoint" />
            <mxPoint x="179" y="390" as="targetPoint" />
          </mxGeometry>
        </mxCell>
        <mxCell id="P2IJpVgM9Y5ErY8ZvdBc-4" value="" style="dashed=0;outlineConnect=0;html=1;align=center;labelPosition=center;verticalLabelPosition=bottom;verticalAlign=top;shape=mxgraph.weblogos.onedrive;fillColor=#094AB1;strokeColor=none" vertex="1" parent="1">
          <mxGeometry x="30" y="390" width="70" height="40" as="geometry" />
        </mxCell>
        <mxCell id="P2IJpVgM9Y5ErY8ZvdBc-6" value="" style="shape=image;html=1;verticalAlign=top;verticalLabelPosition=bottom;labelBackgroundColor=#ffffff;imageAspect=0;aspect=fixed;image=https://cdn3.iconfinder.com/data/icons/document-icons-2/30/647702-excel-128.png" vertex="1" parent="1">
          <mxGeometry x="140" y="440" width="70" height="70" as="geometry" />
        </mxCell>
        <mxCell id="P2IJpVgM9Y5ErY8ZvdBc-7" value="" style="endArrow=classic;html=1;rounded=0;exitX=0.5;exitY=1;exitDx=0;exitDy=0;" edge="1" parent="1">
          <mxGeometry width="50" height="50" relative="1" as="geometry">
            <mxPoint x="179.62" y="549" as="sourcePoint" />
            <mxPoint x="179.62" y="619" as="targetPoint" />
          </mxGeometry>
        </mxCell>
        <mxCell id="P2IJpVgM9Y5ErY8ZvdBc-8" value="" style="image;aspect=fixed;html=1;points=[];align=center;fontSize=12;image=img/lib/azure2/compute/Function_Apps.svg;" vertex="1" parent="1">
          <mxGeometry x="141" y="620" width="79.33" height="70" as="geometry" />
        </mxCell>
        <mxCell id="P2IJpVgM9Y5ErY8ZvdBc-9" value="" style="image;sketch=0;aspect=fixed;html=1;points=[];align=center;fontSize=12;image=img/lib/mscae/Azure_DevOps.svg;" vertex="1" parent="1">
          <mxGeometry x="25" y="750" width="60" height="60" as="geometry" />
        </mxCell>
        <mxCell id="P2IJpVgM9Y5ErY8ZvdBc-10" value="" style="endArrow=classic;html=1;rounded=0;exitX=0.5;exitY=1;exitDx=0;exitDy=0;" edge="1" parent="1">
          <mxGeometry width="50" height="50" relative="1" as="geometry">
            <mxPoint x="179.29" y="680" as="sourcePoint" />
            <mxPoint x="179.29" y="750" as="targetPoint" />
          </mxGeometry>
        </mxCell>
        <mxCell id="P2IJpVgM9Y5ErY8ZvdBc-13" value="" style="image;sketch=0;aspect=fixed;html=1;points=[];align=center;fontSize=12;image=img/lib/mscae/Azure_Repos.svg;" vertex="1" parent="1">
          <mxGeometry x="160" y="770" width="45" height="50" as="geometry" />
        </mxCell>
        <mxCell id="P2IJpVgM9Y5ErY8ZvdBc-14" value="" style="image;sketch=0;aspect=fixed;html=1;points=[];align=center;fontSize=12;image=img/lib/mscae/Azure_Pipelines.svg;" vertex="1" parent="1">
          <mxGeometry x="155" y="930" width="50" height="50" as="geometry" />
        </mxCell>
        <mxCell id="P2IJpVgM9Y5ErY8ZvdBc-17" value="" style="image;aspect=fixed;html=1;points=[];align=center;fontSize=12;image=img/lib/azure2/general/Code.svg;" vertex="1" parent="1">
          <mxGeometry x="600" y="770" width="67.68" height="55" as="geometry" />
        </mxCell>
        <mxCell id="P2IJpVgM9Y5ErY8ZvdBc-21" value="①フォームによって作成したいリソース書き込み" style="text;html=1;align=center;verticalAlign=middle;resizable=0;points=[];autosize=1;strokeColor=none;fillColor=none;" vertex="1" parent="1">
          <mxGeometry x="245" y="255" width="290" height="30" as="geometry" />
        </mxCell>
        <mxCell id="P2IJpVgM9Y5ErY8ZvdBc-23" value="②提出したデータがoneDriverのExcelファイルに保存する" style="text;html=1;align=center;verticalAlign=middle;resizable=0;points=[];autosize=1;strokeColor=none;fillColor=none;" vertex="1" parent="1">
          <mxGeometry x="190" y="320" width="330" height="30" as="geometry" />
        </mxCell>
        <mxCell id="P2IJpVgM9Y5ErY8ZvdBc-24" value="&lt;font style=&quot;font-size: 6px;&quot;&gt;例：IAMユーザー：Test1&lt;/font&gt;" style="whiteSpace=wrap;html=1;fillColor=#e51400;strokeColor=#B20000;fontColor=#ffffff;" vertex="1" parent="1">
          <mxGeometry x="142.83" y="130" width="77.17" height="20" as="geometry" />
        </mxCell>
        <mxCell id="P2IJpVgM9Y5ErY8ZvdBc-27" value="&lt;font style=&quot;font-size: 6px;&quot;&gt;ExcelにIAMユーザー：Test1データを保存&lt;/font&gt;" style="whiteSpace=wrap;html=1;fillColor=#e51400;strokeColor=#B20000;fontColor=#ffffff;" vertex="1" parent="1">
          <mxGeometry x="205" y="350" width="119.67" height="20" as="geometry" />
        </mxCell>
        <mxCell id="P2IJpVgM9Y5ErY8ZvdBc-28" value="③azurefuctionでExcelのデータをjsonファイルにした後でazureDevopsのReopsにコミットする" style="text;html=1;align=center;verticalAlign=middle;resizable=0;points=[];autosize=1;strokeColor=none;fillColor=none;" vertex="1" parent="1">
          <mxGeometry x="210" y="630" width="530" height="30" as="geometry" />
        </mxCell>
        <mxCell id="P2IJpVgM9Y5ErY8ZvdBc-29" value="&lt;font style=&quot;font-size: 6px;&quot;&gt;ExcelのIAMユーザー：Test1データを取得&lt;/font&gt;" style="whiteSpace=wrap;html=1;fillColor=#e51400;strokeColor=#B20000;fontColor=#ffffff;" vertex="1" parent="1">
          <mxGeometry x="220.32999999999998" y="585" width="119.67" height="20" as="geometry" />
        </mxCell>
        <mxCell id="P2IJpVgM9Y5ErY8ZvdBc-30" value="&lt;font style=&quot;font-size: 8px;&quot;&gt;＊Excelファイルがデータを書き込んだら自動的に作成&lt;/font&gt;" style="text;html=1;align=center;verticalAlign=middle;resizable=0;points=[];autosize=1;strokeColor=none;fillColor=none;" vertex="1" parent="1">
          <mxGeometry x="340" y="395" width="220" height="30" as="geometry" />
        </mxCell>
        <mxCell id="P2IJpVgM9Y5ErY8ZvdBc-31" value="④terrafromソース先にReopsにコミットする" style="text;html=1;align=center;verticalAlign=middle;resizable=0;points=[];autosize=1;strokeColor=none;fillColor=none;" vertex="1" parent="1">
          <mxGeometry x="336.16999999999996" y="765" width="260" height="30" as="geometry" />
        </mxCell>
        <mxCell id="P2IJpVgM9Y5ErY8ZvdBc-32" value="" style="endArrow=classic;html=1;rounded=0;entryX=0.948;entryY=0.48;entryDx=0;entryDy=0;entryPerimeter=0;" edge="1" parent="1">
          <mxGeometry width="50" height="50" relative="1" as="geometry">
            <mxPoint x="600" y="797.21" as="sourcePoint" />
            <mxPoint x="205.65999999999997" y="797.21" as="targetPoint" />
          </mxGeometry>
        </mxCell>
        <mxCell id="P2IJpVgM9Y5ErY8ZvdBc-37" value="" style="endArrow=classic;html=1;rounded=0;exitX=0.5;exitY=1;exitDx=0;exitDy=0;" edge="1" parent="1">
          <mxGeometry width="50" height="50" relative="1" as="geometry">
            <mxPoint x="182" y="840" as="sourcePoint" />
            <mxPoint x="182" y="910" as="targetPoint" />
          </mxGeometry>
        </mxCell>
        <mxCell id="P2IJpVgM9Y5ErY8ZvdBc-38" value="&lt;font style=&quot;font-size: 6px;&quot;&gt;｛IAMユーザー：Test1｝ようにjsonファイルをコミットする&lt;/font&gt;" style="whiteSpace=wrap;html=1;fillColor=#e51400;strokeColor=#B20000;fontColor=#ffffff;" vertex="1" parent="1">
          <mxGeometry x="220.33" y="690" width="179.67" height="20" as="geometry" />
        </mxCell>
        <mxCell id="P2IJpVgM9Y5ErY8ZvdBc-41" value="⑤Reopsのファイルを変更したらpipelinesがYMLファイルによって実行すること" style="text;html=1;align=center;verticalAlign=middle;resizable=0;points=[];autosize=1;strokeColor=none;fillColor=none;" vertex="1" parent="1">
          <mxGeometry x="179.99999999999994" y="850" width="450" height="30" as="geometry" />
        </mxCell>
        <mxCell id="P2IJpVgM9Y5ErY8ZvdBc-42" value="" style="endArrow=classic;html=1;rounded=0;exitX=0.5;exitY=1;exitDx=0;exitDy=0;entryX=0.5;entryY=0;entryDx=0;entryDy=0;" edge="1" parent="1" target="P2IJpVgM9Y5ErY8ZvdBc-44">
          <mxGeometry width="50" height="50" relative="1" as="geometry">
            <mxPoint x="182" y="1000" as="sourcePoint" />
            <mxPoint x="182" y="1070" as="targetPoint" />
          </mxGeometry>
        </mxCell>
        <mxCell id="P2IJpVgM9Y5ErY8ZvdBc-43" value="&lt;font style=&quot;font-size: 6px;&quot;&gt;AWSでIAMユーザー：Test1のリソースを作成&lt;/font&gt;" style="whiteSpace=wrap;html=1;fillColor=#e51400;strokeColor=#B20000;fontColor=#ffffff;" vertex="1" parent="1">
          <mxGeometry x="220" y="1090" width="140" height="20" as="geometry" />
        </mxCell>
        <mxCell id="P2IJpVgM9Y5ErY8ZvdBc-44" value="" style="editableCssRules=.*;html=1;shape=image;verticalLabelPosition=bottom;labelBackgroundColor=#ffffff;verticalAlign=top;aspect=fixed;imageAspect=0;image=data:image/svg+xml,PHN2ZyB4bWxucz0iaHR0cDovL3d3dy53My5vcmcvMjAwMC9zdmciIHhtbG5zOnY9Imh0dHBzOi8vdmVjdGEuaW8vbmFubyIgd2lkdGg9IjE2LjQyMDAwMDA3NjI5Mzk0NSIgaGVpZ2h0PSIyMC4wNDk5OTkyMzcwNjA1NDciIGZpbGwtcnVsZT0iZXZlbm9kZCIgdmlld0JveD0iMCAwIDE2LjQyMDAwMDA3NjI5Mzk0NSAyMC4wNDk5OTkyMzcwNjA1NDciPiYjeGE7CTxzdHlsZSB0eXBlPSJ0ZXh0L2NzcyI+JiN4YTsJLnN0MHtmaWxsOiM0Mjg1ZjQ7fSYjeGE7CS5zdDF7ZmlsbDojNjY5ZGY2O30mI3hhOwk8L3N0eWxlPiYjeGE7CTxwYXRoIGNsYXNzPSJzdDEiIGQ9Ik04LjIxIDBMMCAzLjQydjUuNjNjMCA1LjA2IDMuNSA5LjggOC4yMSAxMSA0LjcxLTEuMTUgOC4yMS01Ljg5IDguMjEtMTAuOTVWMy40MnptMCAzLjc5YTIuNjMgMi42MyAwIDAgMSAxLjAwNSA1LjA2QTIuNjMgMi42MyAwIDAgMSA2LjM1IDQuNTZhMi42MyAyLjYzIDAgMCAxIDEuODYtLjc3em00LjExIDExLjE1YTguNjQgOC42NCAwIDAgMS00LjExIDIuOTMgOC42NCA4LjY0IDAgMCAxLTQuMTEtMi45M3YtMi4yNWMwLTEuNjcgMi43NC0yLjUyIDQuMTEtMi41MnM0LjExLjg1IDQuMTEgMi41MnoiLz4mI3hhOwk8cGF0aCBjbGFzcz0ic3QwIiBkPSJNOC4yMSAwdjMuNzlhMi42MyAyLjYzIDAgMSAxIDAgNS4yNnYxLjEyYzEuMzcgMCA0LjExLjg1IDQuMTEgMi41MnYyLjI1YTguNjQgOC42NCAwIDAgMS00LjExIDIuOTNWMjBjNC43MS0xLjE1IDguMjEtNS44OSA4LjIxLTEwLjk1VjMuNDJ6Ii8+JiN4YTs8L3N2Zz4=;" vertex="1" parent="1">
          <mxGeometry x="166.5" y="1120" width="32" height="40" as="geometry" />
        </mxCell>
        <mxCell id="P2IJpVgM9Y5ErY8ZvdBc-47" value="Test1" style="text;html=1;align=center;verticalAlign=middle;resizable=0;points=[];autosize=1;strokeColor=none;fillColor=none;" vertex="1" parent="1">
          <mxGeometry x="157.5" y="1169" width="50" height="30" as="geometry" />
        </mxCell>
        <mxCell id="P2IJpVgM9Y5ErY8ZvdBc-48" value="" style="endArrow=classic;html=1;rounded=0;" edge="1" parent="1">
          <mxGeometry width="50" height="50" relative="1" as="geometry">
            <mxPoint x="178.62" y="150" as="sourcePoint" />
            <mxPoint x="178.33" y="240" as="targetPoint" />
          </mxGeometry>
        </mxCell>
        <mxCell id="P2IJpVgM9Y5ErY8ZvdBc-51" value="AZURE環境" style="text;html=1;align=center;verticalAlign=middle;resizable=0;points=[];autosize=1;strokeColor=none;fillColor=none;" vertex="1" parent="1">
          <mxGeometry x="-230" y="200" width="90" height="30" as="geometry" />
        </mxCell>
        <mxCell id="P2IJpVgM9Y5ErY8ZvdBc-52" value="AWS環境" style="text;html=1;align=center;verticalAlign=middle;resizable=0;points=[];autosize=1;strokeColor=none;fillColor=none;" vertex="1" parent="1">
          <mxGeometry x="-220" y="1085" width="70" height="30" as="geometry" />
        </mxCell>
      </root>
    </mxGraphModel>
  </diagram>
</mxfile>
